<svg width="24" height="24" viewBox="0 0 24 24" fill="none" xmlns="http://www.w3.org/2000/svg">
<path d="M6.99011 3.34005C8.89754 2.23728 11.1158 1.79532 13.3002 2.08284C15.4847 2.37036 17.513 3.37126 19.0701 4.93005L13.4101 10.59M4.00011 6.00005H4.01011M2.29011 9.62005C1.9152 11.1471 1.90569 12.7411 2.26233 14.2725C2.61898 15.8039 3.33174 17.2297 4.34274 18.434C5.35374 19.6383 6.63449 20.5872 8.08101 21.2037C9.52752 21.8202 11.099 22.0869 12.6679 21.9821C14.2369 21.8773 15.759 21.4041 17.1107 20.6007C18.4624 19.7974 19.6056 18.6866 20.4475 17.3586C21.2894 16.0306 21.8063 14.5227 21.9562 12.9575C22.1061 11.3922 21.8847 9.81371 21.3101 8.35005M16.2401 7.76005C15.6646 7.18121 14.9771 6.72588 14.2196 6.42192C13.462 6.11796 12.6504 5.97175 11.8345 5.99225C11.0185 6.01276 10.2153 6.19953 9.47397 6.54115C8.73267 6.88277 8.06886 7.37206 7.52317 7.97906C6.97748 8.58607 6.56137 9.29804 6.30032 10.0714C6.03926 10.8448 5.93875 11.6633 6.00493 12.4768C6.0711 13.2904 6.30257 14.0818 6.68518 14.8028C7.06779 15.5239 7.59349 16.1592 8.23011 16.67M12.0001 18H12.0101M17.9901 11.66C18.0445 12.6114 17.8715 13.5621 17.4855 14.4333C17.0994 15.3045 16.5114 16.0713 15.7701 16.67M14.0001 12C14.0001 13.1046 13.1047 14 12.0001 14C10.8955 14 10.0001 13.1046 10.0001 12C10.0001 10.8955 10.8955 10 12.0001 10C13.1047 10 14.0001 10.8955 14.0001 12Z" stroke="#F7F7F7" stroke-width="2" stroke-linecap="round" stroke-linejoin="round"/>
</svg>
