<svg width="20" height="20" viewBox="0 0 20 20" fill="none" xmlns="http://www.w3.org/2000/svg">
<path opacity="0.5" d="M9.99984 18.3333C6.07147 18.3333 4.10728 18.3333 2.88689 17.1129C1.6665 15.8925 1.6665 13.9284 1.6665 9.99999C1.6665 6.07162 1.6665 4.10743 2.88689 2.88704C4.10728 1.66666 6.07147 1.66666 9.99984 1.66666C13.9282 1.66666 15.8924 1.66666 17.1128 2.88704C18.3332 4.10743 18.3332 6.07162 18.3332 9.99999C18.3332 13.9284 18.3332 15.8925 17.1128 17.1129C15.8924 18.3333 13.9282 18.3333 9.99984 18.3333Z" fill="white"/>
<path d="M15.625 6.66666C15.625 7.01183 15.3452 7.29166 15 7.29166H5C4.65482 7.29166 4.375 7.01183 4.375 6.66666C4.375 6.32148 4.65482 6.04166 5 6.04166H15C15.3452 6.04166 15.625 6.32148 15.625 6.66666Z" fill="white"/>
<path d="M13.9583 9.99999C13.9583 10.3452 13.6785 10.625 13.3333 10.625H6.66667C6.32149 10.625 6.04167 10.3452 6.04167 9.99999C6.04167 9.65481 6.32149 9.37499 6.66667 9.37499H13.3333C13.6785 9.37499 13.9583 9.65481 13.9583 9.99999Z" fill="white"/>
<path d="M12.2917 13.3333C12.2917 13.6785 12.0118 13.9583 11.6667 13.9583H8.33333C7.98816 13.9583 7.70833 13.6785 7.70833 13.3333C7.70833 12.9881 7.98816 12.7083 8.33333 12.7083H11.6667C12.0118 12.7083 12.2917 12.9881 12.2917 13.3333Z" fill="white"/>
</svg>
